<svg width="800" height="132" viewBox="0 0 800 132" fill="none" xmlns="http://www.w3.org/2000/svg">
<path d="M169.909 47.3367H184.336V52.7601C185.839 50.7515 187.642 49.245 189.646 48.1402C191.75 47.0355 194.054 46.4329 196.659 46.4329C201.769 46.4329 205.876 48.0398 208.882 51.2536C211.888 54.4675 213.39 58.8865 213.39 64.6111V93.636H198.663V67.5236C198.663 64.812 198.062 62.8033 196.959 61.2968C195.857 59.8908 194.054 59.0873 191.649 59.0873C189.546 59.0873 187.842 59.7904 186.44 61.2968C185.037 62.8033 184.436 65.0128 184.436 68.1262V93.5356H169.909V47.3367Z" fill="white"/>
<path d="M240.036 94.3377C236.329 94.3377 232.922 93.7351 229.917 92.5299C226.911 91.3248 224.306 89.6174 222.302 87.4079C220.198 85.1984 218.595 82.6876 217.493 79.7751C216.391 76.8625 215.79 73.7491 215.79 70.3344C215.79 67.0202 216.391 63.9068 217.593 60.9942C218.796 58.0817 220.499 55.5709 222.703 53.3614C224.907 51.1519 227.412 49.4445 230.417 48.1389C233.423 46.9337 236.629 46.2307 240.036 46.2307C243.542 46.2307 246.748 46.8333 249.754 48.0385C252.659 49.2437 255.264 50.951 257.368 53.0601C259.472 55.1692 261.175 57.68 262.277 60.5925C263.48 63.505 263.981 66.6184 263.981 70.0331V75.0547H229.616C230.417 77.3647 231.72 79.1725 233.523 80.3777C235.327 81.5829 237.631 82.1854 240.236 82.1854C242.44 82.1854 244.344 81.7837 245.947 80.8798C247.55 79.9759 248.752 78.8712 249.754 77.2643L261.376 83.9932C258.971 87.207 256.166 89.7179 252.759 91.4252C249.453 93.5343 245.145 94.3377 240.036 94.3377ZM240.036 58.383C237.731 58.383 235.727 58.9856 234.024 60.0903C232.321 61.1951 231.019 62.7016 230.117 64.7102H249.854C249.052 62.7016 247.85 61.0947 246.147 60.0903C244.444 58.8852 242.44 58.383 240.036 58.383Z" fill="white"/>
<path d="M260.472 47.3375H274.899L282.814 73.8516L292.031 47.3375H304.154L313.171 74.0524L321.487 47.3375H335.914L320.685 93.5363H307.26L297.842 67.2231L288.425 93.5363H274.899L260.472 47.3375Z" fill="white"/>
<path d="M376.592 94.4406C373.186 94.4406 369.98 93.8379 367.075 92.5323C364.069 91.3271 361.564 89.5194 359.36 87.4103C357.156 85.2008 355.553 82.69 354.25 79.7774C353.048 76.8649 352.447 73.7515 352.447 70.3368C352.447 66.9221 353.048 63.7083 354.351 60.7958C355.553 57.8832 357.356 55.272 359.46 53.1629C361.664 51.0538 364.169 49.3465 367.075 48.1413C369.98 46.9361 373.186 46.3335 376.492 46.3335C378.997 46.3335 381.401 46.6348 383.606 47.3378C385.81 48.0408 387.914 48.9448 389.817 50.2504C391.721 51.4556 393.324 52.962 394.827 54.6694C396.229 56.3767 397.432 58.2849 398.333 60.394L393.825 62.4027C392.322 58.8875 390.018 56.0754 387.012 53.9664C384.006 51.8573 380.5 50.8529 376.492 50.8529C373.787 50.8529 371.282 51.3551 368.978 52.3594C366.674 53.3638 364.67 54.7698 362.967 56.5776C361.264 58.3854 359.961 60.394 358.959 62.8044C357.957 65.2148 357.557 67.7256 357.557 70.3368C357.557 73.0485 358.058 75.5593 359.059 77.8692C360.061 80.2796 361.364 82.2882 363.067 84.096C364.77 85.9038 366.774 87.3099 369.078 88.3142C371.383 89.3185 373.988 89.8207 376.693 89.8207C380.8 89.8207 384.407 88.7159 387.313 86.406C390.218 84.096 392.422 81.2839 393.925 77.8692L398.534 79.8779C396.73 84.1965 393.925 87.6112 390.218 90.3228C386.511 93.1349 382.003 94.4406 376.592 94.4406Z" fill="white"/>
<path d="M426.289 94.4402C419.777 94.4402 414.868 92.532 411.561 88.816C408.255 85.1 406.552 79.8775 406.552 73.1486V47.3375H411.361V73.1486C411.361 78.2706 412.664 82.2879 415.268 85.3009C417.873 88.3138 421.681 89.9208 426.79 89.9208C429.094 89.9208 431.299 89.519 433.202 88.6151C435.206 87.7112 436.909 86.6065 438.312 85.1C439.714 83.5935 440.917 81.7857 441.718 79.7771C442.52 77.7684 442.92 75.4585 442.92 73.1486V47.4379H447.629V93.6367H443.021V84.6983C441.518 87.6108 439.414 90.0212 436.508 91.829C433.603 93.5363 430.197 94.4402 426.289 94.4402Z" fill="white"/>
<path d="M476.387 94.4382C471.177 94.4382 466.869 93.5343 463.463 91.8269C460.056 90.1196 457.351 87.9101 455.147 85.3993L458.954 81.8842C460.758 84.1941 463.062 86.2027 465.867 87.7092C468.673 89.3161 472.079 90.0191 476.287 90.0191C480.395 90.0191 483.601 89.1153 485.705 87.4079C487.809 85.6001 488.911 83.2902 488.911 80.3777C488.911 78.8712 488.51 77.5655 487.708 76.5612C486.907 75.5569 485.805 74.7535 484.502 74.1509C483.2 73.5483 481.597 73.0461 479.894 72.7448C478.19 72.3431 476.387 72.0418 474.584 71.6401C472.58 71.3388 470.476 70.8366 468.572 70.4349C466.569 69.9327 464.765 69.2297 463.162 68.4262C461.559 67.5223 460.257 66.4176 459.355 65.0115C458.453 63.6055 457.952 61.6973 457.952 59.4877C457.952 57.68 458.253 56.0731 458.954 54.4661C459.656 52.8592 460.658 51.4532 462.06 50.248C463.463 49.0428 465.166 48.1389 467.27 47.3354C469.374 46.6324 471.778 46.2307 474.484 46.2307C478.792 46.2307 482.398 46.9337 485.304 48.4402C488.209 49.8463 490.814 51.7545 492.918 54.0644L489.211 57.4791C487.608 55.4705 485.604 53.8635 483.2 52.5579C480.795 51.2523 477.89 50.5493 474.484 50.5493C470.276 50.5493 467.27 51.3527 465.567 52.9597C463.864 54.5666 462.962 56.6757 462.962 59.2869C462.962 60.7934 463.363 61.9985 464.164 62.9024C464.966 63.8063 465.968 64.6098 467.37 65.2124C468.673 65.815 470.175 66.3171 471.879 66.6184C473.582 66.9197 475.385 67.3215 477.189 67.6228C479.192 67.9241 481.296 68.4262 483.3 68.828C485.304 69.3301 487.107 70.0331 488.71 70.937C490.313 71.8409 491.616 73.0461 492.618 74.5526C493.62 76.0591 494.12 77.9673 494.12 80.3777C494.12 82.2859 493.72 84.0937 492.918 85.9014C492.117 87.6088 491.015 89.1153 489.512 90.3204C488.009 91.5256 486.206 92.53 484.001 93.3334C481.797 94.1369 479.293 94.4382 476.387 94.4382Z" fill="white"/>
<path d="M498.219 47.3383H507.135V36.9938L511.945 33.9808V47.2379H525.971V51.5565H511.945V80.4809C511.945 83.8956 512.646 86.2056 513.948 87.5112C515.251 88.8168 517.054 89.5198 519.158 89.5198C521.462 89.5198 523.366 88.616 525.069 86.9086L527.975 90.3233C526.672 91.5285 525.27 92.4324 523.867 93.035C522.464 93.6376 520.761 93.9389 518.757 93.9389C514.85 93.9389 511.944 92.8341 510.041 90.725C508.137 88.616 507.135 85.3017 507.135 80.7823V51.5565H498.219V47.3383Z" fill="white"/>
<path d="M554.424 94.4382C550.917 94.4382 547.811 93.8356 544.906 92.6304C542 91.4252 539.496 89.7178 537.392 87.6088C535.288 85.4997 533.585 82.8884 532.382 79.9759C531.18 77.0634 530.579 73.8496 530.579 70.3344C530.579 66.9198 531.18 63.7059 532.382 60.7934C533.585 57.8808 535.288 55.37 537.392 53.1605C539.496 50.951 542 49.3441 544.906 48.0385C547.811 46.8333 550.917 46.2307 554.424 46.2307C557.93 46.2307 561.036 46.8333 563.942 48.0385C566.847 49.2437 569.352 50.951 571.556 53.1605C573.76 55.37 575.363 57.8808 576.666 60.7934C577.868 63.7059 578.469 66.8193 578.469 70.3344C578.469 73.7491 577.868 76.8625 576.666 79.7751C575.463 82.6876 573.76 85.1984 571.656 87.4079C569.552 89.6174 566.947 91.3248 564.042 92.5299C561.136 93.7351 557.83 94.4382 554.424 94.4382ZM554.424 89.8183C557.129 89.8183 559.634 89.3161 561.938 88.4122C564.242 87.4079 566.246 86.1023 567.949 84.395C569.652 82.6876 570.955 80.5785 571.957 78.2686C572.959 75.8582 573.359 73.3474 573.359 70.5353C573.359 67.8236 572.858 65.2124 571.957 62.802C570.955 60.3917 569.652 58.383 567.949 56.5752C566.246 54.8679 564.242 53.4618 561.938 52.4575C559.634 51.4532 557.129 50.951 554.424 50.951C551.719 50.951 549.214 51.4532 546.91 52.4575C544.605 53.4618 542.602 54.8679 540.898 56.5752C539.195 58.2826 537.893 60.3917 536.891 62.802C535.889 65.2124 535.488 67.7232 535.488 70.5353C535.488 73.3474 535.989 75.9586 536.891 78.369C537.893 80.7794 539.195 82.788 540.898 84.4954C542.602 86.2027 544.605 87.5083 546.91 88.5127C549.214 89.3161 551.719 89.8183 554.424 89.8183Z" fill="white"/>
<path d="M588.29 47.3354H592.899V55.8722C594.402 53.0601 596.506 50.7501 599.311 48.9424C602.116 47.235 605.422 46.3311 609.43 46.3311C614.039 46.3311 617.846 47.3354 620.751 49.3441C623.757 51.3527 625.761 54.0644 626.963 57.4791C628.265 54.1648 630.47 51.4532 633.676 49.3441C636.882 47.235 640.589 46.2307 644.897 46.2307C648.103 46.2307 651.008 46.7329 653.513 47.6368C656.018 48.6411 658.222 49.9467 659.925 51.7545C661.728 53.5623 663.031 55.6713 663.933 58.1821C664.834 60.6929 665.335 63.505 665.335 66.518V93.3334H660.526V66.2167C660.526 64.0072 660.125 61.8981 659.424 59.9899C658.723 58.0817 657.621 56.4748 656.218 55.0687C654.815 53.6627 653.112 52.5579 651.209 51.8549C649.205 51.0514 647.101 50.6497 644.696 50.6497C642.492 50.6497 640.388 51.0515 638.485 51.7545C636.581 52.4575 634.878 53.5622 633.475 54.9683C632.073 56.3743 630.87 57.9813 630.069 59.8895C629.267 61.7977 628.867 64.0072 628.867 66.4176V93.3334H624.058V65.4132C624.058 63.2037 623.657 61.1951 622.955 59.3873C622.254 57.5795 621.252 55.9726 619.95 54.7675C618.647 53.4618 617.044 52.4575 615.141 51.7545C613.237 51.0515 611.133 50.6497 608.829 50.6497C606.525 50.6497 604.421 51.0514 602.517 51.8549C600.513 52.6584 598.81 53.7631 597.407 55.1692C596.005 56.5752 594.903 58.383 594.101 60.3916C593.3 62.4003 592.899 64.7102 592.899 67.1206V93.3334H588.09V47.3354H588.29Z" fill="white"/>
<path d="M699 94.4406C695.293 94.4406 691.886 93.8379 688.88 92.6328C685.875 91.4276 683.37 89.7202 681.266 87.6111C679.162 85.5021 677.559 82.9913 676.457 80.0787C675.355 77.1662 674.754 74.0528 674.754 70.6381C674.754 67.2234 675.355 64.0096 676.557 61.097C677.76 58.0841 679.463 55.5733 681.567 53.3638C683.771 51.1542 686.276 49.4469 689.281 48.2417C692.287 47.0365 695.493 46.3335 699 46.3335C702.306 46.3335 705.412 46.9361 708.217 48.0409C711.022 49.246 713.527 50.853 715.631 52.962C717.735 55.0711 719.338 57.4815 720.54 60.394C721.742 63.3065 722.243 66.42 722.243 69.8347V72.3455H679.463C679.663 74.9567 680.264 77.2666 681.266 79.3757C682.268 81.4848 683.671 83.393 685.374 84.8995C687.077 86.5064 689.081 87.7116 691.385 88.6155C693.689 89.5194 696.194 89.9211 698.899 89.9211C703.007 89.9211 706.514 89.0172 709.419 87.3099C712.224 85.6025 714.629 82.9913 716.432 79.5766L720.74 81.9869C718.135 86.1047 715.23 89.2181 711.824 91.2267C708.417 93.2354 704.109 94.4406 699 94.4406ZM699 50.8529C696.395 50.8529 694.09 51.2547 691.786 52.1586C689.582 53.0625 687.578 54.1672 685.875 55.7741C684.172 57.2806 682.769 59.0884 681.667 61.1975C680.565 63.3066 679.864 65.5161 679.563 67.9264H717.134C716.933 65.4156 716.332 63.1057 715.43 60.9966C714.529 58.8875 713.226 57.0798 711.623 55.5733C710.02 54.0668 708.117 52.8616 706.013 52.0581C703.909 51.2547 701.604 50.8529 699 50.8529Z" fill="white"/>
<path d="M732.269 47.3346H736.677V56.5744C737.679 53.3605 739.282 50.8497 741.587 49.1424C743.891 47.435 746.896 46.6316 750.503 46.6316C753.709 46.6316 756.214 47.1338 758.118 48.2385L755.813 52.6575C755.212 52.1554 754.411 51.8541 753.509 51.5528C752.607 51.2515 751.505 51.151 750.303 51.151C745.895 51.151 742.488 52.5571 740.284 55.4696C738.08 58.3822 736.878 62.8012 736.878 68.8271V93.433H732.169V47.3346H732.269Z" fill="white"/>
<path d="M782.267 94.4382C777.057 94.4382 772.749 93.5343 769.343 91.8269C765.936 90.1196 763.231 87.9101 761.027 85.3993L764.834 81.8842C766.638 84.1941 768.942 86.2027 771.747 87.7092C774.553 89.3161 777.959 90.0191 782.167 90.0191C786.275 90.0191 789.481 89.1153 791.585 87.4079C793.689 85.6001 794.791 83.2902 794.791 80.3777C794.791 78.8712 794.39 77.5655 793.588 76.5612C792.787 75.5569 791.685 74.7535 790.382 74.1509C789.08 73.5483 787.477 73.0461 785.774 72.7448C784.07 72.3431 782.267 72.0418 780.464 71.6401C778.46 71.3388 776.356 70.8366 774.452 70.4349C772.449 69.9327 770.645 69.2297 769.042 68.4262C767.439 67.5223 766.137 66.4176 765.235 65.0115C764.333 63.6055 763.832 61.6973 763.832 59.4877C763.832 57.68 764.133 56.0731 764.834 54.4661C765.536 52.8592 766.537 51.4532 767.94 50.248C769.343 49.0428 771.046 48.1389 773.15 47.3354C775.254 46.6324 777.658 46.2307 780.364 46.2307C784.672 46.2307 788.278 46.9337 791.184 48.4402C794.089 49.8463 796.694 51.7545 798.798 54.0644L795.091 57.4791C793.488 55.4705 791.484 53.8635 789.08 52.5579C786.675 51.2523 783.77 50.5493 780.364 50.5493C776.156 50.5493 773.15 51.3527 771.447 52.9597C769.744 54.5666 768.842 56.6757 768.842 59.2869C768.842 60.7934 769.243 61.9985 770.044 62.9024C770.846 63.8063 771.847 64.6098 773.25 65.2124C774.553 65.815 776.055 66.3171 777.759 66.6184C779.462 66.9197 781.265 67.3215 783.069 67.6228C785.072 67.9241 787.176 68.4262 789.18 68.828C791.184 69.3301 792.987 70.0331 794.59 70.937C796.193 71.8409 797.496 73.0461 798.498 74.5526C799.499 76.0591 800 77.9673 800 80.3777C800 82.2859 799.6 84.0937 798.798 85.9014C797.997 87.6088 796.895 89.1153 795.392 90.3204C793.889 91.5256 792.086 92.53 789.881 93.3334C787.677 94.1369 785.173 94.4382 782.267 94.4382Z" fill="white"/>
<path d="M72.4941 101.933C62.8087 103.791 53.0037 101.813 44.8727 96.2391C36.7418 90.7254 31.1817 82.3349 29.3283 72.6259C27.4749 62.917 29.5076 53.0881 35.008 44.9374C40.5083 36.7866 48.8784 31.2729 58.5638 29.3551C68.2492 27.4972 78.0542 29.4749 86.1851 35.0486C103.045 46.4956 107.469 69.5095 96.0499 86.3503C90.4897 94.561 82.1795 100.075 72.4941 101.933ZM60.1781 38.1051C52.8243 39.5435 46.4272 43.7387 42.2421 49.9117C38.0571 56.1446 36.5026 63.6361 37.9375 71.0078C39.3724 78.3794 43.5574 84.7322 49.7752 88.9873C55.993 93.1826 63.4065 94.7408 70.82 93.3024C78.1738 91.8641 84.5709 87.6688 88.756 81.4958C92.941 75.2629 94.4954 67.8314 93.0606 60.3998C91.6257 53.0282 87.4407 46.6155 81.2827 42.4202C75.0051 38.225 67.5318 36.6668 60.1781 38.1051Z" fill="white"/>
<path d="M33.576 128.902C30.2878 129.561 26.8799 128.842 24.1297 126.984C19.6458 123.927 17.613 118.414 19.0479 113.14L19.2871 112.301L18.6892 111.701C-3.07305 89.4666 -6.18194 54.5863 11.2159 28.8156C21.0209 14.312 35.9077 4.4832 53.1261 1.18695C62.1539 -0.551076 71.4806 -0.371278 80.3888 1.66641C78.7147 4.18355 77.519 6.94041 76.8614 9.93701C69.5674 8.43871 62.1539 8.43871 54.8002 9.87707C39.9134 12.7538 27.0593 21.2641 18.5696 33.7899C3.80238 55.665 6.19384 85.4512 24.2493 104.689L24.9668 105.468L25.9233 104.989C26.8799 104.569 27.8365 104.21 28.8529 104.03C32.1411 103.371 35.549 104.09 38.2991 105.948C44.0984 109.843 45.5931 117.754 41.707 123.508C39.7938 126.385 36.924 128.243 33.576 128.902ZM29.8095 109.124C27.8365 109.484 26.1625 110.623 25.0863 112.241C23.9504 113.859 23.5917 115.897 23.9504 117.814C24.3091 119.792 25.4451 121.47 27.0593 122.549C28.6735 123.688 30.7063 124.047 32.6194 123.688C34.5924 123.328 36.2664 122.189 37.3425 120.571C39.6144 117.155 38.7176 112.54 35.3696 110.203C33.7554 109.184 31.7226 108.765 29.8095 109.124Z" fill="white"/>
<path d="M77.941 130.16C68.9133 131.898 59.5866 131.718 50.6785 129.68C52.3525 127.163 53.5482 124.406 54.2059 121.41C61.4998 122.908 68.9133 122.908 76.267 121.47C91.1538 118.593 104.008 110.083 112.498 97.5568C127.265 75.6816 124.873 45.8955 106.818 26.6574L106.1 25.8783L105.144 26.3577C104.187 26.7772 103.231 27.1368 102.214 27.3166C98.9261 27.9759 95.5182 27.2567 92.7681 25.3988C89.9581 23.481 88.1047 20.6042 87.4471 17.308C86.7894 14.0117 87.5069 10.5956 89.3603 7.83875C91.2734 5.02195 94.1432 3.16406 97.4314 2.50481C100.72 1.84556 104.127 2.56474 106.878 4.42263C111.362 7.41922 113.394 12.9929 111.96 18.207L111.72 19.046L112.318 19.6453C134.08 41.8801 137.189 76.7604 119.792 102.531C110.046 117.035 95.1595 126.864 77.941 130.16ZM98.388 7.59902C96.415 7.95861 94.741 9.09732 93.6649 10.7155C91.393 14.1316 92.2898 18.7464 95.6378 21.0837C97.2521 22.2224 99.2848 22.582 101.198 22.2224C103.171 21.8628 104.845 20.7241 105.921 19.1059C107.057 17.4878 107.416 15.4501 107.057 13.5323C106.698 11.5545 105.562 9.87643 103.948 8.79766C102.334 7.59902 100.361 7.1795 98.388 7.59902Z" fill="white"/>
</svg>
